<?xml version="1.0" encoding="UTF-8" standalone="no"?>
<!-- Created with Inkscape (http://www.inkscape.org/) -->

<svg
   xmlns:dc="http://purl.org/dc/elements/1.1/"
   xmlns:cc="http://creativecommons.org/ns#"
   xmlns:rdf="http://www.w3.org/1999/02/22-rdf-syntax-ns#"
   xmlns:svg="http://www.w3.org/2000/svg"
   xmlns="http://www.w3.org/2000/svg"
   xmlns:sodipodi="http://sodipodi.sourceforge.net/DTD/sodipodi-0.dtd"
   xmlns:inkscape="http://www.inkscape.org/namespaces/inkscape"
   width="24"
   height="24"
   id="svg8621"
   version="1.1"
   inkscape:version="0.47 r22583"
   sodipodi:docname="category_24x.svg">
  <defs
     id="defs8623">
    <inkscape:perspective
       sodipodi:type="inkscape:persp3d"
       inkscape:vp_x="0 : 526.18109 : 1"
       inkscape:vp_y="0 : 1000 : 0"
       inkscape:vp_z="744.09448 : 526.18109 : 1"
       inkscape:persp3d-origin="372.04724 : 350.78739 : 1"
       id="perspective8629" />
    <inkscape:perspective
       id="perspective8615"
       inkscape:persp3d-origin="0.5 : 0.33333333 : 1"
       inkscape:vp_z="1 : 0.5 : 1"
       inkscape:vp_y="0 : 1000 : 0"
       inkscape:vp_x="0 : 0.5 : 1"
       sodipodi:type="inkscape:persp3d" />
    <inkscape:perspective
       id="perspective8671"
       inkscape:persp3d-origin="0.5 : 0.33333333 : 1"
       inkscape:vp_z="1 : 0.5 : 1"
       inkscape:vp_y="0 : 1000 : 0"
       inkscape:vp_x="0 : 0.5 : 1"
       sodipodi:type="inkscape:persp3d" />
    <inkscape:perspective
       id="perspective8717"
       inkscape:persp3d-origin="0.5 : 0.33333333 : 1"
       inkscape:vp_z="1 : 0.5 : 1"
       inkscape:vp_y="0 : 1000 : 0"
       inkscape:vp_x="0 : 0.5 : 1"
       sodipodi:type="inkscape:persp3d" />
    <inkscape:perspective
       id="perspective8763"
       inkscape:persp3d-origin="0.5 : 0.33333333 : 1"
       inkscape:vp_z="1 : 0.5 : 1"
       inkscape:vp_y="0 : 1000 : 0"
       inkscape:vp_x="0 : 0.5 : 1"
       sodipodi:type="inkscape:persp3d" />
  </defs>
  <sodipodi:namedview
     id="base"
     pagecolor="#ffffff"
     bordercolor="#666666"
     borderopacity="1.0"
     inkscape:pageopacity="0.0"
     inkscape:pageshadow="2"
     inkscape:zoom="9.8333333"
     inkscape:cx="1.3220183"
     inkscape:cy="9.3559548"
     inkscape:document-units="px"
     inkscape:current-layer="layer1"
     showgrid="false"
     inkscape:window-width="613"
     inkscape:window-height="504"
     inkscape:window-x="756"
     inkscape:window-y="97"
     inkscape:window-maximized="0" />
  <metadata
     id="metadata8626">
    <rdf:RDF>
      <cc:Work
         rdf:about="">
        <dc:format>image/svg+xml</dc:format>
        <dc:type
           rdf:resource="http://purl.org/dc/dcmitype/StillImage" />
        <dc:title></dc:title>
      </cc:Work>
    </rdf:RDF>
  </metadata>
  <g
     inkscape:label="Layer 1"
     inkscape:groupmode="layer"
     id="layer1"
     transform="translate(-570.10657,-720.57526)">
    <path
       id="path8597"
       d="m 589.98258,721.02873 -14.4374,0.4688 a 0.750075,0.750075 0 0 0 -0.5626,1.2187 l 2.125,2.6563 c -1.4761,0.989 -2.6137,2.0366 -3.25,3.2187 -0.7421,1.3791 -0.9143,2.8903 -0.625,4.375 0.5491,2.8162 2.6651,5.625 5.3126,8.5 l -1,1.5 a 0.750075,0.750075 0 0 0 0.625,1.1563 l 9.0937,0 a 0.750075,0.750075 0 0 0 0.4375,-1.375 l -1.7188,-1.2188 c 1.4753,-2.8354 3.6305,-5.9673 4.625,-8.8438 0.5291,-1.5297 0.7524,-3.0662 0.125,-4.4062 -0.5059,-1.0809 -1.6823,-1.8367 -3.2187,-2.4062 l 3.0937,-3.625 a 0.750075,0.750075 0 0 0 -0.625,-1.2188 z m -1.6562,1.5625 -2.625,3.0625 a 0.750075,0.750075 0 0 0 0.4062,1.2188 c 1.9685,0.4829 2.8661,1.211 3.25,2.0312 0.2741,0.5854 0.3249,1.3249 0.1563,2.1875 l -0.6563,-1.25 -1.9374,5.0937 1.0312,-0.062 c -1.1151,2.0884 -2.5579,4.362 -3.625,6.5312 a 0.750075,0.750075 0 0 0 0.2188,0.9375 l 0.4062,0.2813 -5.4062,0 0.5312,-0.7813 a 0.750075,0.750075 0 0 0 -0.062,-0.9375 c -2.7856,-2.9616 -4.8096,-5.8001 -5.2813,-8.2188 -0.038,-0.1949 -0.074,-0.373 -0.094,-0.5624 l 1.25,2.4062 1.8437,-4.9688 -2.75,0.1563 c 0.058,-0.1365 0.1146,-0.2708 0.1876,-0.4063 0.5753,-1.069 1.644,-2.1336 3.375,-3.1562 a 0.750075,0.750075 0 0 0 0.2187,-1.125 l -1.6875,-2.0938 11.25,-0.3437 z m -0.062,6.25 -4.1875,0.2813 2.3125,4.5937 1.875,-4.875 z m -5.25,0.3437 -4.2187,0.3126 2.3437,4.6562 1.875,-4.9688 z m 0.5625,1.0313 -1.9062,5.0625 4.3124,-0.2812 -2.4062,-4.7813 z m -5.25,0.4063 -1.9062,5.0312 4.3124,-0.2812 -2.4062,-4.75 z"
       style="font-size:medium;font-style:normal;font-variant:normal;font-weight:normal;font-stretch:normal;text-indent:0;text-align:start;text-decoration:none;line-height:normal;letter-spacing:normal;word-spacing:normal;text-transform:none;direction:ltr;block-progression:tb;writing-mode:lr-tb;text-anchor:start;color:#000000;fill:#000000;fill-opacity:1;stroke:none;stroke-width:1.5;marker:none;visibility:visible;display:inline;overflow:visible;enable-background:accumulate;font-family:'.Helvetica Light';-inkscape-font-specification:'.Helvetica Light'" />
  </g>
</svg>
