<?xml version="1.0" encoding="UTF-8" standalone="no"?>
<!-- Created with Inkscape (http://www.inkscape.org/) -->

<svg
   xmlns:dc="http://purl.org/dc/elements/1.1/"
   xmlns:cc="http://creativecommons.org/ns#"
   xmlns:rdf="http://www.w3.org/1999/02/22-rdf-syntax-ns#"
   xmlns:svg="http://www.w3.org/2000/svg"
   xmlns="http://www.w3.org/2000/svg"
   xmlns:sodipodi="http://sodipodi.sourceforge.net/DTD/sodipodi-0.dtd"
   xmlns:inkscape="http://www.inkscape.org/namespaces/inkscape"
   width="24"
   height="24"
   id="svg8621"
   version="1.1"
   inkscape:version="0.47 r22583"
   sodipodi:docname="新文件 9">
  <defs
     id="defs8623">
    <inkscape:perspective
       sodipodi:type="inkscape:persp3d"
       inkscape:vp_x="0 : 526.18109 : 1"
       inkscape:vp_y="0 : 1000 : 0"
       inkscape:vp_z="744.09448 : 526.18109 : 1"
       inkscape:persp3d-origin="372.04724 : 350.78739 : 1"
       id="perspective8629" />
    <inkscape:perspective
       id="perspective8615"
       inkscape:persp3d-origin="0.5 : 0.33333333 : 1"
       inkscape:vp_z="1 : 0.5 : 1"
       inkscape:vp_y="0 : 1000 : 0"
       inkscape:vp_x="0 : 0.5 : 1"
       sodipodi:type="inkscape:persp3d" />
  </defs>
  <sodipodi:namedview
     id="base"
     pagecolor="#ffffff"
     bordercolor="#666666"
     borderopacity="1.0"
     inkscape:pageopacity="0.0"
     inkscape:pageshadow="2"
     inkscape:zoom="9.8333333"
     inkscape:cx="11.999999"
     inkscape:cy="12.000001"
     inkscape:document-units="px"
     inkscape:current-layer="layer1"
     showgrid="false"
     inkscape:window-width="613"
     inkscape:window-height="504"
     inkscape:window-x="272"
     inkscape:window-y="58"
     inkscape:window-maximized="0" />
  <metadata
     id="metadata8626">
    <rdf:RDF>
      <cc:Work
         rdf:about="">
        <dc:format>image/svg+xml</dc:format>
        <dc:type
           rdf:resource="http://purl.org/dc/dcmitype/StillImage" />
        <dc:title></dc:title>
      </cc:Work>
    </rdf:RDF>
  </metadata>
  <g
     inkscape:label="Layer 1"
     inkscape:groupmode="layer"
     id="layer1"
     transform="translate(-559.42859,-723.2193)">
    <path
       id="path8587"
       d="m 571.44408,724.82871 c -5.7325,0 -10.4062,4.6738 -10.4062,10.4063 0,5.7326 4.6737,10.375 10.4062,10.375 5.7327,0 10.375,-4.6424 10.375,-10.375 0,-5.7325 -4.6423,-10.4063 -10.375,-10.4063 z m 0,1.5 c 4.922,0 8.875,3.9845 8.875,8.9063 0,4.9219 -3.953,8.875 -8.875,8.875 -4.9218,0 -8.9062,-3.9531 -8.9062,-8.875 0,-4.9218 3.9844,-8.9063 8.9062,-8.9063 z m 0,0.9376 c -4.3868,0 -7.9687,3.5818 -7.9687,7.9687 0,4.3869 3.5819,7.9375 7.9687,7.9375 4.387,0 7.9376,-3.5506 7.9376,-7.9375 0,-4.3869 -3.5506,-7.9687 -7.9376,-7.9687 z m 0,1 c 3.8466,0 6.9376,3.1222 6.9376,6.9687 0,3.8465 -3.0911,6.9375 -6.9376,6.9375 -3.8465,0 -6.9687,-3.091 -6.9687,-6.9375 0,-3.8465 3.1223,-6.9687 6.9687,-6.9687 z m -0.75,0.5624 0,0.75 0,4.9063 0,0.75 0,0.75 1.5,0 4.875,0 0.75,0 0,-1.5 -0.75,0 -4.875,0 0,-4.9063 0,-0.75 -1.5,0 z"
       style="font-size:medium;font-style:normal;font-variant:normal;font-weight:normal;font-stretch:normal;text-indent:0;text-align:start;text-decoration:none;line-height:normal;letter-spacing:normal;word-spacing:normal;text-transform:none;direction:ltr;block-progression:tb;writing-mode:lr-tb;text-anchor:start;color:#000000;fill:#000000;fill-opacity:1;fill-rule:nonzero;stroke:none;stroke-width:2.95466924;marker:none;visibility:visible;display:inline;overflow:visible;enable-background:accumulate;font-family:'.Helvetica Light';-inkscape-font-specification:'.Helvetica Light'" />
  </g>
</svg>
