<?xml version="1.0" encoding="UTF-8" standalone="no"?>
<!-- Created with Inkscape (http://www.inkscape.org/) -->

<svg
   xmlns:dc="http://purl.org/dc/elements/1.1/"
   xmlns:cc="http://creativecommons.org/ns#"
   xmlns:rdf="http://www.w3.org/1999/02/22-rdf-syntax-ns#"
   xmlns:svg="http://www.w3.org/2000/svg"
   xmlns="http://www.w3.org/2000/svg"
   xmlns:sodipodi="http://sodipodi.sourceforge.net/DTD/sodipodi-0.dtd"
   xmlns:inkscape="http://www.inkscape.org/namespaces/inkscape"
   width="24"
   height="24"
   id="svg8621"
   version="1.1"
   inkscape:version="0.47 r22583"
   sodipodi:docname="china_24x.svg">
  <defs
     id="defs8623">
    <inkscape:perspective
       sodipodi:type="inkscape:persp3d"
       inkscape:vp_x="0 : 526.18109 : 1"
       inkscape:vp_y="0 : 1000 : 0"
       inkscape:vp_z="744.09448 : 526.18109 : 1"
       inkscape:persp3d-origin="372.04724 : 350.78739 : 1"
       id="perspective8629" />
    <inkscape:perspective
       id="perspective8615"
       inkscape:persp3d-origin="0.5 : 0.33333333 : 1"
       inkscape:vp_z="1 : 0.5 : 1"
       inkscape:vp_y="0 : 1000 : 0"
       inkscape:vp_x="0 : 0.5 : 1"
       sodipodi:type="inkscape:persp3d" />
    <inkscape:perspective
       id="perspective8671"
       inkscape:persp3d-origin="0.5 : 0.33333333 : 1"
       inkscape:vp_z="1 : 0.5 : 1"
       inkscape:vp_y="0 : 1000 : 0"
       inkscape:vp_x="0 : 0.5 : 1"
       sodipodi:type="inkscape:persp3d" />
    <inkscape:perspective
       id="perspective8717"
       inkscape:persp3d-origin="0.5 : 0.33333333 : 1"
       inkscape:vp_z="1 : 0.5 : 1"
       inkscape:vp_y="0 : 1000 : 0"
       inkscape:vp_x="0 : 0.5 : 1"
       sodipodi:type="inkscape:persp3d" />
    <inkscape:perspective
       id="perspective8763"
       inkscape:persp3d-origin="0.5 : 0.33333333 : 1"
       inkscape:vp_z="1 : 0.5 : 1"
       inkscape:vp_y="0 : 1000 : 0"
       inkscape:vp_x="0 : 0.5 : 1"
       sodipodi:type="inkscape:persp3d" />
    <inkscape:perspective
       id="perspective8809"
       inkscape:persp3d-origin="0.5 : 0.33333333 : 1"
       inkscape:vp_z="1 : 0.5 : 1"
       inkscape:vp_y="0 : 1000 : 0"
       inkscape:vp_x="0 : 0.5 : 1"
       sodipodi:type="inkscape:persp3d" />
  </defs>
  <sodipodi:namedview
     id="base"
     pagecolor="#ffffff"
     bordercolor="#666666"
     borderopacity="1.0"
     inkscape:pageopacity="0.0"
     inkscape:pageshadow="2"
     inkscape:zoom="9.8333333"
     inkscape:cx="20.949157"
     inkscape:cy="10.881403"
     inkscape:document-units="px"
     inkscape:current-layer="layer1"
     showgrid="false"
     inkscape:window-width="613"
     inkscape:window-height="504"
     inkscape:window-x="756"
     inkscape:window-y="97"
     inkscape:window-maximized="0" />
  <metadata
     id="metadata8626">
    <rdf:RDF>
      <cc:Work
         rdf:about="">
        <dc:format>image/svg+xml</dc:format>
        <dc:type
           rdf:resource="http://purl.org/dc/dcmitype/StillImage" />
        <dc:title></dc:title>
      </cc:Work>
    </rdf:RDF>
  </metadata>
  <g
     inkscape:label="Layer 1"
     inkscape:groupmode="layer"
     id="layer1"
     transform="translate(-550.47943,-722.10071)">
    <path
       id="path8583"
       d="m 567.8151,723.92917 c -0.021,0.01 -0.042,0.02 -0.062,0.031 l -13.4376,2.0624 c -0.778,0.1161 -1.1523,1.2587 -0.5937,1.8126 1.6817,1.6646 2.0286,3.2245 1.8125,5.2187 -0.2161,1.9942 -1.1216,4.3349 -2.0625,7.0313 -0.2035,0.5831 -0.35,1.3651 -0.062,2.25 0.2865,0.8848 1.2096,1.7934 2.5,1.9374 l 0.125,0 14.0625,0 c 0.2244,0 0.4466,-0.082 0.625,-0.2187 0.6803,-0.5103 1.0841,-1.3504 0.9687,-2.0937 -0.1152,-0.7435 -0.5756,-1.2681 -1.0624,-1.625 -0.1294,-0.094 -0.28,-0.159 -0.4376,-0.1876 l -1.2812,-0.1874 c 0.016,-0.2689 -0.028,-0.4361 0.094,-0.8438 0.5518,-1.8478 1.6351,-4.2427 2.0312,-6.8438 0.3961,-2.6011 0.021,-5.5298 -2.3438,-8 -0.1983,-0.2152 -0.4885,-0.3428 -0.7812,-0.3437 l -0.094,0 z m -0.1562,1.625 c 1.8666,2.0559 2.1842,4.2227 1.8438,6.4687 -0.3504,2.3107 -1.3996,4.6151 -2,6.625 -0.1858,0.6218 -0.242,1.1613 -0.2188,1.625 l -10.0938,-1.5937 a 0.50004997,0.50004997 0 0 0 -0.062,0 0.50004997,0.50004997 0 0 0 -0.094,0 0.50004997,0.50004997 0 0 0 -0.3438,0.7187 c 0.5871,1.1067 0.6,1.95 0.4063,2.4688 -0.1268,0.3397 -0.3212,0.582 -0.5937,0.7188 -0.1363,0.068 -0.3022,0.1047 -0.4688,0.125 0.1666,-0.02 0.3324,-0.057 0.4688,-0.125 l -0.4688,0.094 c -0.3309,-0.047 -0.5492,-0.1315 -0.7188,-0.25 -0.011,-0.01 -0.02,-0.023 -0.031,-0.031 0,0 -0.026,0 -0.031,0 -0.012,-0.01 -0.021,-0.022 -0.031,-0.031 -0.1522,-0.1347 -0.2509,-0.3103 -0.3125,-0.5 -0.1373,-0.4226 -0.061,-0.9851 0.031,-1.25 0.9291,-2.662 1.9058,-5.0976 2.1563,-7.4062 0.2214,-2.0407 -0.3472,-3.9923 -1.8125,-5.7813 l 12.375,-1.875 z m 0.031,2.3125 -9.0312,1.1875 0.125,1 9.0312,-1.2187 -0.125,-0.9688 z m 0.25,2.4688 -9.0312,1.2187 0.125,1 9.0312,-1.2187 -0.125,-1 z m -0.3437,2.5 -9,1.1874 0.125,1 9.0313,-1.2187 -0.1563,-0.9687 z m -0.6563,2.6874 -9.0312,1.2188 0.125,1 9.0312,-1.2188 -0.125,-1 z m -9.0937,4.2813 11.9375,1.875 c 0.1985,0.1701 0.3513,0.3812 0.375,0.5313 0.023,0.1431 -0.094,0.2989 -0.3125,0.5 l -12.1875,0 c 0.1249,-0.1692 0.2972,-0.2917 0.375,-0.5 0.2432,-0.6513 0.1224,-1.5033 -0.1875,-2.4063 z"
       style="font-size:medium;font-style:normal;font-variant:normal;font-weight:normal;font-stretch:normal;text-indent:0;text-align:start;text-decoration:none;line-height:normal;letter-spacing:normal;word-spacing:normal;text-transform:none;direction:ltr;block-progression:tb;writing-mode:lr-tb;text-anchor:start;color:#000000;fill:#000000;fill-opacity:1;fill-rule:nonzero;stroke:none;stroke-width:2.13333321;marker:none;visibility:visible;display:inline;overflow:visible;enable-background:accumulate;font-family:'.Helvetica Light';-inkscape-font-specification:'.Helvetica Light'" />
  </g>
</svg>
