<?xml version="1.0" encoding="UTF-8" standalone="no"?>
<!-- Created with Inkscape (http://www.inkscape.org/) -->

<svg
   xmlns:dc="http://purl.org/dc/elements/1.1/"
   xmlns:cc="http://creativecommons.org/ns#"
   xmlns:rdf="http://www.w3.org/1999/02/22-rdf-syntax-ns#"
   xmlns:svg="http://www.w3.org/2000/svg"
   xmlns="http://www.w3.org/2000/svg"
   xmlns:sodipodi="http://sodipodi.sourceforge.net/DTD/sodipodi-0.dtd"
   xmlns:inkscape="http://www.inkscape.org/namespaces/inkscape"
   width="24"
   height="24"
   id="svg8621"
   version="1.1"
   inkscape:version="0.47 r22583"
   sodipodi:docname="paper_24x.svg">
  <defs
     id="defs8623">
    <inkscape:perspective
       sodipodi:type="inkscape:persp3d"
       inkscape:vp_x="0 : 526.18109 : 1"
       inkscape:vp_y="0 : 1000 : 0"
       inkscape:vp_z="744.09448 : 526.18109 : 1"
       inkscape:persp3d-origin="372.04724 : 350.78739 : 1"
       id="perspective8629" />
    <inkscape:perspective
       id="perspective8615"
       inkscape:persp3d-origin="0.5 : 0.33333333 : 1"
       inkscape:vp_z="1 : 0.5 : 1"
       inkscape:vp_y="0 : 1000 : 0"
       inkscape:vp_x="0 : 0.5 : 1"
       sodipodi:type="inkscape:persp3d" />
    <inkscape:perspective
       id="perspective8671"
       inkscape:persp3d-origin="0.5 : 0.33333333 : 1"
       inkscape:vp_z="1 : 0.5 : 1"
       inkscape:vp_y="0 : 1000 : 0"
       inkscape:vp_x="0 : 0.5 : 1"
       sodipodi:type="inkscape:persp3d" />
    <inkscape:perspective
       id="perspective8717"
       inkscape:persp3d-origin="0.5 : 0.33333333 : 1"
       inkscape:vp_z="1 : 0.5 : 1"
       inkscape:vp_y="0 : 1000 : 0"
       inkscape:vp_x="0 : 0.5 : 1"
       sodipodi:type="inkscape:persp3d" />
    <inkscape:perspective
       id="perspective8763"
       inkscape:persp3d-origin="0.5 : 0.33333333 : 1"
       inkscape:vp_z="1 : 0.5 : 1"
       inkscape:vp_y="0 : 1000 : 0"
       inkscape:vp_x="0 : 0.5 : 1"
       sodipodi:type="inkscape:persp3d" />
    <inkscape:perspective
       id="perspective8809"
       inkscape:persp3d-origin="0.5 : 0.33333333 : 1"
       inkscape:vp_z="1 : 0.5 : 1"
       inkscape:vp_y="0 : 1000 : 0"
       inkscape:vp_x="0 : 0.5 : 1"
       sodipodi:type="inkscape:persp3d" />
    <inkscape:perspective
       id="perspective8855"
       inkscape:persp3d-origin="0.5 : 0.33333333 : 1"
       inkscape:vp_z="1 : 0.5 : 1"
       inkscape:vp_y="0 : 1000 : 0"
       inkscape:vp_x="0 : 0.5 : 1"
       sodipodi:type="inkscape:persp3d" />
  </defs>
  <sodipodi:namedview
     id="base"
     pagecolor="#ffffff"
     bordercolor="#666666"
     borderopacity="1.0"
     inkscape:pageopacity="0.0"
     inkscape:pageshadow="2"
     inkscape:zoom="9.8333333"
     inkscape:cx="-3.3558978"
     inkscape:cy="14.237358"
     inkscape:document-units="px"
     inkscape:current-layer="layer1"
     showgrid="false"
     inkscape:window-width="613"
     inkscape:window-height="504"
     inkscape:window-x="756"
     inkscape:window-y="97"
     inkscape:window-maximized="0" />
  <metadata
     id="metadata8626">
    <rdf:RDF>
      <cc:Work
         rdf:about="">
        <dc:format>image/svg+xml</dc:format>
        <dc:type
           rdf:resource="http://purl.org/dc/dcmitype/StillImage" />
        <dc:title></dc:title>
      </cc:Work>
    </rdf:RDF>
  </metadata>
  <g
     inkscape:label="Layer 1"
     inkscape:groupmode="layer"
     id="layer1"
     transform="translate(-574.78448,-725.45667)">
    <path
       id="path8593"
       d="m 586.76932,725.67217 c -4.0803,0 -7.375,3.3569 -7.375,7.4687 0,2.4805 1.3039,4.5488 3.1563,5.9063 -1.0336,1.799 -1.6875,4.1527 -1.6875,6.8125 0,0.5263 0.021,1.0076 0.062,1.5 a 0.75007506,0.75007506 0 0 0 0.4375,0.625 c 3.58,1.6561 7.5136,1.6943 10.8438,0 a 0.75007506,0.75007506 0 0 0 0.4062,-0.625 c 0.045,-0.4966 0.062,-0.9757 0.062,-1.5 0,-2.6607 -0.622,-5.0138 -1.6563,-6.8125 1.8535,-1.3568 3.1563,-3.4236 3.1563,-5.9063 0,-4.1119 -3.3259,-7.4687 -7.4063,-7.4687 z m 0,1.5 c 3.2609,0 5.9063,2.6586 5.9063,5.9687 0,2.2038 -1.1913,4.0889 -2.9375,5.125 a 0.75007506,0.75007506 0 0 0 -0.2188,1.0626 c 0.9968,1.5119 1.6563,3.8823 1.6563,6.5312 0,0.3124 -0.012,0.6028 -0.031,0.9062 -2.6975,1.2412 -5.7937,1.2464 -8.75,0 -0.019,-0.3046 -0.031,-0.5951 -0.031,-0.9062 0,-2.6462 0.692,-5.0191 1.6875,-6.5312 a 0.75007506,0.75007506 0 0 0 -0.25,-1.0626 c -1.7452,-1.0353 -2.9063,-2.9188 -2.9063,-5.125 0,-3.3101 2.6142,-5.9687 5.875,-5.9687 z m -3.6874,4.0625 c -0.4378,0 -0.7813,0.7651 -0.7813,1.6875 0,0.9225 0.3435,1.6563 0.7813,1.6563 0.438,0 0.7812,-0.7338 0.7812,-1.6563 0,-0.9225 -0.3433,-1.6875 -0.7812,-1.6875 z m 3.9687,0.8438 c -0.4825,0 -0.9063,0.8273 -0.9063,1.8437 0,1.0164 0.4238,1.8437 0.9063,1.8437 0.4825,0 0.875,-0.8273 0.875,-1.8437 0,-1.0164 -0.3925,-1.8437 -0.875,-1.8437 z"
       style="font-size:medium;font-style:normal;font-variant:normal;font-weight:normal;font-stretch:normal;text-indent:0;text-align:start;text-decoration:none;line-height:normal;letter-spacing:normal;word-spacing:normal;text-transform:none;direction:ltr;block-progression:tb;writing-mode:lr-tb;text-anchor:start;color:#000000;fill:#000000;fill-opacity:1;fill-rule:nonzero;stroke:none;stroke-width:1.50000012;marker:none;visibility:visible;display:inline;overflow:visible;enable-background:accumulate;font-family:'.Helvetica Light';-inkscape-font-specification:'.Helvetica Light'" />
  </g>
</svg>
