<?xml version="1.0" encoding="UTF-8" standalone="no"?>
<!-- Created with Inkscape (http://www.inkscape.org/) -->

<svg
   xmlns:dc="http://purl.org/dc/elements/1.1/"
   xmlns:cc="http://creativecommons.org/ns#"
   xmlns:rdf="http://www.w3.org/1999/02/22-rdf-syntax-ns#"
   xmlns:svg="http://www.w3.org/2000/svg"
   xmlns="http://www.w3.org/2000/svg"
   xmlns:sodipodi="http://sodipodi.sourceforge.net/DTD/sodipodi-0.dtd"
   xmlns:inkscape="http://www.inkscape.org/namespaces/inkscape"
   width="32"
   height="32"
   id="svg8621"
   version="1.1"
   inkscape:version="0.47 r22583"
   sodipodi:docname="tag_24x.svg">
  <defs
     id="defs8623">
    <inkscape:perspective
       sodipodi:type="inkscape:persp3d"
       inkscape:vp_x="0 : 526.18109 : 1"
       inkscape:vp_y="0 : 1000 : 0"
       inkscape:vp_z="744.09448 : 526.18109 : 1"
       inkscape:persp3d-origin="372.04724 : 350.78739 : 1"
       id="perspective8629" />
    <inkscape:perspective
       id="perspective8615"
       inkscape:persp3d-origin="0.5 : 0.33333333 : 1"
       inkscape:vp_z="1 : 0.5 : 1"
       inkscape:vp_y="0 : 1000 : 0"
       inkscape:vp_x="0 : 0.5 : 1"
       sodipodi:type="inkscape:persp3d" />
    <inkscape:perspective
       id="perspective8671"
       inkscape:persp3d-origin="0.5 : 0.33333333 : 1"
       inkscape:vp_z="1 : 0.5 : 1"
       inkscape:vp_y="0 : 1000 : 0"
       inkscape:vp_x="0 : 0.5 : 1"
       sodipodi:type="inkscape:persp3d" />
    <inkscape:perspective
       id="perspective19237"
       inkscape:persp3d-origin="0.5 : 0.33333333 : 1"
       inkscape:vp_z="1 : 0.5 : 1"
       inkscape:vp_y="0 : 1000 : 0"
       inkscape:vp_x="0 : 0.5 : 1"
       sodipodi:type="inkscape:persp3d" />
    <inkscape:perspective
       id="perspective19407"
       inkscape:persp3d-origin="0.5 : 0.33333333 : 1"
       inkscape:vp_z="1 : 0.5 : 1"
       inkscape:vp_y="0 : 1000 : 0"
       inkscape:vp_x="0 : 0.5 : 1"
       sodipodi:type="inkscape:persp3d" />
  </defs>
  <sodipodi:namedview
     id="base"
     pagecolor="#ffffff"
     bordercolor="#666666"
     borderopacity="1.0"
     inkscape:pageopacity="0.0"
     inkscape:pageshadow="2"
     inkscape:zoom="9.8333333"
     inkscape:cx="17.830562"
     inkscape:cy="10.101688"
     inkscape:document-units="px"
     inkscape:current-layer="layer1"
     showgrid="false"
     inkscape:window-width="613"
     inkscape:window-height="504"
     inkscape:window-x="6"
     inkscape:window-y="78"
     inkscape:window-maximized="0" />
  <metadata
     id="metadata8626">
    <rdf:RDF>
      <cc:Work
         rdf:about="">
        <dc:format>image/svg+xml</dc:format>
        <dc:type
           rdf:resource="http://purl.org/dc/dcmitype/StillImage" />
        <dc:title></dc:title>
      </cc:Work>
    </rdf:RDF>
  </metadata>
  <g
     inkscape:label="Layer 1"
     inkscape:groupmode="layer"
     id="layer1"
     transform="translate(-557.15735,-727.0498)">
    <path
       style="font-size:medium;font-style:normal;font-variant:normal;font-weight:normal;font-stretch:normal;text-indent:0;text-align:start;text-decoration:none;line-height:normal;letter-spacing:normal;word-spacing:normal;text-transform:none;direction:ltr;block-progression:tb;writing-mode:lr-tb;text-anchor:start;color:#000000;fill:#000000;fill-opacity:1;fill-rule:nonzero;stroke:none;stroke-width:3.20000005;marker:none;visibility:visible;display:inline;overflow:visible;enable-background:accumulate;font-family:'.Helvetica Light';-inkscape-font-specification:'.Helvetica Light'"
       d="m 570.26626,731.01545 c -2.3786,0.012 -4.77841,0.9031 -6.59381,2.7187 -3.6309,3.6311 -3.6428,9.5461 -0.031,13.1563 2.9629,2.9637 7.44101,3.3559 10.96871,1.4375 1.9899,2.0018 3.9785,3.9984 5.9687,6 1.11559,1.0406 2.88279,1.0242 3.9688,-0.062 1.10969,-1.1096 1.10969,-2.9526 0,-4.0625 l -5.9688,-6 c 1.629,-3.45 1.0808,-7.6687 -1.75,-10.5 -1.8052,-1.805 -4.1838,-2.6974 -6.56241,-2.6875 z m 0,1.6563 c 1.9484,-0.012 3.8909,0.7339 5.375,2.2187 2.4662,2.466 2.865,6.2132 1.2187,9.125 l -0.3125,0.5625 0.4688,0.4062 6.375,6.4063 c 0.473,0.4731 0.4733,1.2143 0,1.6875 -0.45041,0.4503 -1.1798,0.4699 -1.6563,0.062 l -6.3125,-6.375 -0.5,-0.4375 -0.5625,0.3438 c -2.9636,1.9227 -6.9543,1.6389 -9.53131,-0.9376 -2.9682,-2.9692 -2.9673,-7.8127 0.031,-10.8124 1.4998,-1.5 3.45771,-2.2419 5.40631,-2.25 z m 0.031,1.9687 c -1.44769,0.01 -2.92619,0.5512 -4.0312,1.6563 -2.2102,2.21 -2.2241,5.8068 -0.031,8 2.1931,2.193 5.79,2.179 8.00001,-0.031 2.2101,-2.2101 2.2243,-5.8068 0.031,-8 -1.09659,-1.0965 -2.52109,-1.6331 -3.9688,-1.625 z m -0.031,1 c 1.1893,0 2.375,0.4374 3.2812,1.3437 1.8124,1.8125 1.8261,4.7361 0,6.5626 -1.8264,1.8263 -4.7812,1.8436 -6.59381,0.031 -1.8124,-1.8124 -1.795,-4.7361 0.031,-6.5625 0.9132,-0.9133 2.09191,-1.3705 3.28131,-1.375 z"
       id="path19388" />
  </g>
</svg>
